{
	"asset":{
		"generator":"Khronos glTF Blender I/O v5.2.40",
		"version":"2.0"
	},
	"scene":0,
	"scenes":[
		{
			"name":"B_Build",
			"nodes":[
				0
			]
		}
	],
	"nodes":[
		{
			"mesh":0,
			"name":"crate"
		}
	],
	"materials":[
		{
			"doubleSided":true,
			"name":"MI_Trim_Furniture.004",
			"normalTexture":{
				"index":0
			},
			"pbrMetallicRoughness":{
				"baseColorTexture":{
					"index":1
				},
				"metallicRoughnessTexture":{
					"index":2
				}
			}
		},
		{
			"doubleSided":true,
			"name":"MI_Trim_Metal.004",
			"normalTexture":{
				"index":3
			},
			"pbrMetallicRoughness":{
				"baseColorTexture":{
					"index":4
				},
				"metallicRoughnessTexture":{
					"index":5
				}
			}
		}
	],
	"meshes":[
		{
			"name":"Cube.004",
			"primitives":[
				{
					"attributes":{
						"POSITION":0,
						"NORMAL":1,
						"TEXCOORD_0":2,
						"COLOR_0":3
					},
					"indices":4,
					"material":0
				},
				{
					"attributes":{
						"POSITION":5,
						"NORMAL":6,
						"TEXCOORD_0":7,
						"COLOR_0":8
					},
					"indices":9,
					"material":1
				}
			]
		}
	],
	"textures":[
		{
			"sampler":0,
			"source":0
		},
		{
			"sampler":0,
			"source":1
		},
		{
			"sampler":0,
			"source":2
		},
		{
			"sampler":0,
			"source":3
		},
		{
			"sampler":0,
			"source":4
		},
		{
			"sampler":0,
			"source":5
		}
	],
	"images":[
		{
			"mimeType":"image/png",
			"name":"T_Trim_Furniture_Normal",
			"uri":"textures/T_Trim_Furniture_Normal.png"
		},
		{
			"mimeType":"image/png",
			"name":"T_Trim_Furniture_BaseColor",
			"uri":"textures/T_Trim_Furniture_BaseColor.png"
		},
		{
			"mimeType":"image/png",
			"name":"T_Trim_Furniture_ORM",
			"uri":"textures/T_Trim_Furniture_ORM.png"
		},
		{
			"mimeType":"image/png",
			"name":"T_Trim_Metal_Normal",
			"uri":"textures/T_Trim_Metal_Normal.png"
		},
		{
			"mimeType":"image/png",
			"name":"T_Trim_Metal_BaseColor",
			"uri":"textures/T_Trim_Metal_BaseColor.png"
		},
		{
			"mimeType":"image/png",
			"name":"T_Trim_Metal_ORM",
			"uri":"textures/T_Trim_Metal_ORM.png"
		}
	],
	"accessors":[
		{
			"bufferView":0,
			"componentType":5126,
			"count":610,
			"max":[
				0.4000000059604645,
				0.7780701518058777,
				0.37878915667533875
			],
			"min":[
				-0.4000000059604645,
				0.02192983776330948,
				-0.3754397928714752
			],
			"type":"VEC3"
		},
		{
			"bufferView":1,
			"componentType":5126,
			"count":610,
			"type":"VEC3"
		},
		{
			"bufferView":2,
			"componentType":5126,
			"count":610,
			"type":"VEC2"
		},
		{
			"bufferView":3,
			"componentType":5126,
			"count":610,
			"type":"VEC3"
		},
		{
			"bufferView":4,
			"componentType":5123,
			"count":984,
			"type":"SCALAR"
		},
		{
			"bufferView":5,
			"componentType":5126,
			"count":816,
			"max":[
				0.39073559641838074,
				0.800000011920929,
				0.4000000059604645
			],
			"min":[
				-0.3817777931690216,
				0,
				-0.4000000059604645
			],
			"type":"VEC3"
		},
		{
			"bufferView":6,
			"componentType":5126,
			"count":816,
			"type":"VEC3"
		},
		{
			"bufferView":7,
			"componentType":5126,
			"count":816,
			"type":"VEC2"
		},
		{
			"bufferView":8,
			"componentType":5126,
			"count":816,
			"type":"VEC3"
		},
		{
			"bufferView":9,
			"componentType":5123,
			"count":3744,
			"type":"SCALAR"
		}
	],
	"bufferViews":[
		{
			"buffer":0,
			"byteLength":7320,
			"byteOffset":0,
			"target":34962
		},
		{
			"buffer":0,
			"byteLength":7320,
			"byteOffset":7320,
			"target":34962
		},
		{
			"buffer":0,
			"byteLength":4880,
			"byteOffset":14640,
			"target":34962
		},
		{
			"buffer":0,
			"byteLength":7320,
			"byteOffset":19520,
			"target":34962
		},
		{
			"buffer":0,
			"byteLength":1968,
			"byteOffset":26840,
			"target":34963
		},
		{
			"buffer":0,
			"byteLength":9792,
			"byteOffset":28808,
			"target":34962
		},
		{
			"buffer":0,
			"byteLength":9792,
			"byteOffset":38600,
			"target":34962
		},
		{
			"buffer":0,
			"byteLength":6528,
			"byteOffset":48392,
			"target":34962
		},
		{
			"buffer":0,
			"byteLength":9792,
			"byteOffset":54920,
			"target":34962
		},
		{
			"buffer":0,
			"byteLength":7488,
			"byteOffset":64712,
			"target":34963
		}
	],
	"samplers":[
		{
			"magFilter":9729,
			"minFilter":9987
		}
	],
	"buffers":[
		{
			"byteLength":72200,
			"uri":"crate.bin"
		}
	]
}
