{
	"asset":{
		"generator":"Khronos glTF Blender I/O v5.2.40",
		"version":"2.0"
	},
	"scene":0,
	"scenes":[
		{
			"name":"B_Build",
			"nodes":[
				0
			]
		}
	],
	"nodes":[
		{
			"mesh":0,
			"name":"table"
		}
	],
	"materials":[
		{
			"doubleSided":true,
			"name":"MI_Trim_Furniture.005",
			"normalTexture":{
				"index":0
			},
			"pbrMetallicRoughness":{
				"baseColorTexture":{
					"index":1
				},
				"metallicRoughnessTexture":{
					"index":2
				}
			}
		},
		{
			"doubleSided":true,
			"name":"MI_Trim_Metal.005",
			"normalTexture":{
				"index":3
			},
			"pbrMetallicRoughness":{
				"baseColorTexture":{
					"index":4
				},
				"metallicRoughnessTexture":{
					"index":5
				}
			}
		}
	],
	"meshes":[
		{
			"name":"Cube.005",
			"primitives":[
				{
					"attributes":{
						"POSITION":0,
						"NORMAL":1,
						"TEXCOORD_0":2,
						"COLOR_0":3
					},
					"indices":4,
					"material":0
				},
				{
					"attributes":{
						"POSITION":5,
						"NORMAL":6,
						"TEXCOORD_0":7,
						"COLOR_0":8
					},
					"indices":9,
					"material":1
				}
			]
		}
	],
	"textures":[
		{
			"sampler":0,
			"source":0
		},
		{
			"sampler":0,
			"source":1
		},
		{
			"sampler":0,
			"source":2
		},
		{
			"sampler":0,
			"source":3
		},
		{
			"sampler":0,
			"source":4
		},
		{
			"sampler":0,
			"source":5
		}
	],
	"images":[
		{
			"mimeType":"image/png",
			"name":"T_Trim_Furniture_Normal",
			"uri":"textures/T_Trim_Furniture_Normal.png"
		},
		{
			"mimeType":"image/png",
			"name":"T_Trim_Furniture_BaseColor",
			"uri":"textures/T_Trim_Furniture_BaseColor.png"
		},
		{
			"mimeType":"image/png",
			"name":"T_Trim_Furniture_ORM",
			"uri":"textures/T_Trim_Furniture_ORM.png"
		},
		{
			"mimeType":"image/png",
			"name":"T_Trim_Metal_Normal",
			"uri":"textures/T_Trim_Metal_Normal.png"
		},
		{
			"mimeType":"image/png",
			"name":"T_Trim_Metal_BaseColor",
			"uri":"textures/T_Trim_Metal_BaseColor.png"
		},
		{
			"mimeType":"image/png",
			"name":"T_Trim_Metal_ORM",
			"uri":"textures/T_Trim_Metal_ORM.png"
		}
	],
	"accessors":[
		{
			"bufferView":0,
			"componentType":5126,
			"count":1246,
			"max":[
				0.699999988079071,
				0.7482482194900513,
				0.3938063383102417
			],
			"min":[
				-0.699999988079071,
				0,
				-0.4000000059604645
			],
			"type":"VEC3"
		},
		{
			"bufferView":1,
			"componentType":5126,
			"count":1246,
			"type":"VEC3"
		},
		{
			"bufferView":2,
			"componentType":5126,
			"count":1246,
			"type":"VEC2"
		},
		{
			"bufferView":3,
			"componentType":5126,
			"count":1246,
			"type":"VEC3"
		},
		{
			"bufferView":4,
			"componentType":5123,
			"count":2838,
			"type":"SCALAR"
		},
		{
			"bufferView":5,
			"componentType":5126,
			"count":72,
			"max":[
				0.364146888256073,
				0.75,
				0.4000000059604645
			],
			"min":[
				-0.364146888256073,
				0.6767218708992004,
				-0.39812153577804565
			],
			"type":"VEC3"
		},
		{
			"bufferView":6,
			"componentType":5126,
			"count":72,
			"type":"VEC3"
		},
		{
			"bufferView":7,
			"componentType":5126,
			"count":72,
			"type":"VEC2"
		},
		{
			"bufferView":8,
			"componentType":5126,
			"count":72,
			"type":"VEC3"
		},
		{
			"bufferView":9,
			"componentType":5123,
			"count":120,
			"type":"SCALAR"
		}
	],
	"bufferViews":[
		{
			"buffer":0,
			"byteLength":14952,
			"byteOffset":0,
			"target":34962
		},
		{
			"buffer":0,
			"byteLength":14952,
			"byteOffset":14952,
			"target":34962
		},
		{
			"buffer":0,
			"byteLength":9968,
			"byteOffset":29904,
			"target":34962
		},
		{
			"buffer":0,
			"byteLength":14952,
			"byteOffset":39872,
			"target":34962
		},
		{
			"buffer":0,
			"byteLength":5676,
			"byteOffset":54824,
			"target":34963
		},
		{
			"buffer":0,
			"byteLength":864,
			"byteOffset":60500,
			"target":34962
		},
		{
			"buffer":0,
			"byteLength":864,
			"byteOffset":61364,
			"target":34962
		},
		{
			"buffer":0,
			"byteLength":576,
			"byteOffset":62228,
			"target":34962
		},
		{
			"buffer":0,
			"byteLength":864,
			"byteOffset":62804,
			"target":34962
		},
		{
			"buffer":0,
			"byteLength":240,
			"byteOffset":63668,
			"target":34963
		}
	],
	"samplers":[
		{
			"magFilter":9729,
			"minFilter":9987
		}
	],
	"buffers":[
		{
			"byteLength":63908,
			"uri":"table.bin"
		}
	]
}
