{
	"asset":{
		"generator":"Khronos glTF Blender I/O v5.2.40",
		"version":"2.0"
	},
	"scene":0,
	"scenes":[
		{
			"name":"B_Build",
			"nodes":[
				0
			]
		}
	],
	"nodes":[
		{
			"mesh":0,
			"name":"palm_1"
		}
	],
	"materials":[
		{
			"doubleSided":true,
			"name":"M_PalmBark",
			"normalTexture":{
				"index":0
			},
			"pbrMetallicRoughness":{
				"baseColorTexture":{
					"index":1
				},
				"metallicFactor":0,
				"roughnessFactor":0.949999988079071
			}
		},
		{
			"alphaMode":"MASK",
			"doubleSided":true,
			"name":"M_PalmFrond",
			"pbrMetallicRoughness":{
				"baseColorTexture":{
					"index":2
				},
				"metallicFactor":0,
				"roughnessFactor":0.800000011920929
			}
		}
	],
	"meshes":[
		{
			"name":"palm_1",
			"primitives":[
				{
					"attributes":{
						"POSITION":0,
						"NORMAL":1,
						"TEXCOORD_0":2
					},
					"indices":3,
					"material":0
				},
				{
					"attributes":{
						"POSITION":4,
						"NORMAL":5,
						"TEXCOORD_0":6
					},
					"indices":7,
					"material":1
				}
			]
		}
	],
	"textures":[
		{
			"sampler":0,
			"source":0
		},
		{
			"sampler":0,
			"source":1
		},
		{
			"sampler":0,
			"source":2
		}
	],
	"images":[
		{
			"mimeType":"image/png",
			"name":"Bark_NormalTree_Normal",
			"uri":"textures/Bark_NormalTree_Normal.png"
		},
		{
			"mimeType":"image/png",
			"name":"Bark_NormalTree",
			"uri":"textures/Bark_NormalTree.png"
		},
		{
			"mimeType":"image/png",
			"name":"Leaves",
			"uri":"textures/Leaves.png"
		}
	],
	"accessors":[
		{
			"bufferView":0,
			"componentType":5126,
			"count":135,
			"max":[
				1.3300000429153442,
				6.5,
				0.21858571469783783
			],
			"min":[
				-0.21246325969696045,
				0,
				-0.21858571469783783
			],
			"type":"VEC3"
		},
		{
			"bufferView":1,
			"componentType":5126,
			"count":135,
			"type":"VEC3"
		},
		{
			"bufferView":2,
			"componentType":5126,
			"count":135,
			"type":"VEC2"
		},
		{
			"bufferView":3,
			"componentType":5123,
			"count":672,
			"type":"SCALAR"
		},
		{
			"bufferView":4,
			"componentType":5126,
			"count":768,
			"max":[
				4.116360664367676,
				7.859345436096191,
				2.709143877029419
			],
			"min":[
				-1.346047043800354,
				5.365523338317871,
				-2.4743740558624268
			],
			"type":"VEC3"
		},
		{
			"bufferView":5,
			"componentType":5126,
			"count":768,
			"type":"VEC3"
		},
		{
			"bufferView":6,
			"componentType":5126,
			"count":768,
			"type":"VEC2"
		},
		{
			"bufferView":7,
			"componentType":5123,
			"count":1152,
			"type":"SCALAR"
		}
	],
	"bufferViews":[
		{
			"buffer":0,
			"byteLength":1620,
			"byteOffset":0,
			"target":34962
		},
		{
			"buffer":0,
			"byteLength":1620,
			"byteOffset":1620,
			"target":34962
		},
		{
			"buffer":0,
			"byteLength":1080,
			"byteOffset":3240,
			"target":34962
		},
		{
			"buffer":0,
			"byteLength":1344,
			"byteOffset":4320,
			"target":34963
		},
		{
			"buffer":0,
			"byteLength":9216,
			"byteOffset":5664,
			"target":34962
		},
		{
			"buffer":0,
			"byteLength":9216,
			"byteOffset":14880,
			"target":34962
		},
		{
			"buffer":0,
			"byteLength":6144,
			"byteOffset":24096,
			"target":34962
		},
		{
			"buffer":0,
			"byteLength":2304,
			"byteOffset":30240,
			"target":34963
		}
	],
	"samplers":[
		{
			"magFilter":9729,
			"minFilter":9987
		}
	],
	"buffers":[
		{
			"byteLength":32544,
			"uri":"palm_1.bin"
		}
	]
}
