{
	"asset":{
		"generator":"Khronos glTF Blender I/O v5.2.40",
		"version":"2.0"
	},
	"scene":0,
	"scenes":[
		{
			"name":"B_Build",
			"nodes":[
				0
			]
		}
	],
	"nodes":[
		{
			"mesh":0,
			"name":"palm_3"
		}
	],
	"materials":[
		{
			"doubleSided":true,
			"name":"M_PalmBark",
			"normalTexture":{
				"index":0
			},
			"pbrMetallicRoughness":{
				"baseColorTexture":{
					"index":1
				},
				"metallicFactor":0,
				"roughnessFactor":0.949999988079071
			}
		},
		{
			"alphaMode":"MASK",
			"doubleSided":true,
			"name":"M_PalmFrond",
			"pbrMetallicRoughness":{
				"baseColorTexture":{
					"index":2
				},
				"metallicFactor":0,
				"roughnessFactor":0.800000011920929
			}
		}
	],
	"meshes":[
		{
			"name":"palm_3",
			"primitives":[
				{
					"attributes":{
						"POSITION":0,
						"NORMAL":1,
						"TEXCOORD_0":2
					},
					"indices":3,
					"material":0
				},
				{
					"attributes":{
						"POSITION":4,
						"NORMAL":5,
						"TEXCOORD_0":6
					},
					"indices":7,
					"material":1
				}
			]
		}
	],
	"textures":[
		{
			"sampler":0,
			"source":0
		},
		{
			"sampler":0,
			"source":1
		},
		{
			"sampler":0,
			"source":2
		}
	],
	"images":[
		{
			"mimeType":"image/png",
			"name":"Bark_NormalTree_Normal",
			"uri":"textures/Bark_NormalTree_Normal.png"
		},
		{
			"mimeType":"image/png",
			"name":"Bark_NormalTree",
			"uri":"textures/Bark_NormalTree.png"
		},
		{
			"mimeType":"image/png",
			"name":"Leaves",
			"uri":"textures/Leaves.png"
		}
	],
	"accessors":[
		{
			"bufferView":0,
			"componentType":5126,
			"count":135,
			"max":[
				0.6299999952316284,
				4.5,
				0.21858571469783783
			],
			"min":[
				-0.2160346955060959,
				0,
				-0.21858571469783783
			],
			"type":"VEC3"
		},
		{
			"bufferView":1,
			"componentType":5126,
			"count":135,
			"type":"VEC3"
		},
		{
			"bufferView":2,
			"componentType":5126,
			"count":135,
			"type":"VEC2"
		},
		{
			"bufferView":3,
			"componentType":5123,
			"count":672,
			"type":"SCALAR"
		},
		{
			"bufferView":4,
			"componentType":5126,
			"count":704,
			"max":[
				2.732664108276367,
				5.57444953918457,
				2.31758713722229
			],
			"min":[
				-2.02730393409729,
				3.540064811706543,
				-2.143134832382202
			],
			"type":"VEC3"
		},
		{
			"bufferView":5,
			"componentType":5126,
			"count":704,
			"type":"VEC3"
		},
		{
			"bufferView":6,
			"componentType":5126,
			"count":704,
			"type":"VEC2"
		},
		{
			"bufferView":7,
			"componentType":5123,
			"count":1056,
			"type":"SCALAR"
		}
	],
	"bufferViews":[
		{
			"buffer":0,
			"byteLength":1620,
			"byteOffset":0,
			"target":34962
		},
		{
			"buffer":0,
			"byteLength":1620,
			"byteOffset":1620,
			"target":34962
		},
		{
			"buffer":0,
			"byteLength":1080,
			"byteOffset":3240,
			"target":34962
		},
		{
			"buffer":0,
			"byteLength":1344,
			"byteOffset":4320,
			"target":34963
		},
		{
			"buffer":0,
			"byteLength":8448,
			"byteOffset":5664,
			"target":34962
		},
		{
			"buffer":0,
			"byteLength":8448,
			"byteOffset":14112,
			"target":34962
		},
		{
			"buffer":0,
			"byteLength":5632,
			"byteOffset":22560,
			"target":34962
		},
		{
			"buffer":0,
			"byteLength":2112,
			"byteOffset":28192,
			"target":34963
		}
	],
	"samplers":[
		{
			"magFilter":9729,
			"minFilter":9987
		}
	],
	"buffers":[
		{
			"byteLength":30304,
			"uri":"palm_3.bin"
		}
	]
}
