{
	"asset":{
		"generator":"Khronos glTF Blender I/O v5.2.40",
		"version":"2.0"
	},
	"scene":0,
	"scenes":[
		{
			"name":"B_Build",
			"nodes":[
				0
			]
		}
	],
	"nodes":[
		{
			"mesh":0,
			"name":"plant_big"
		}
	],
	"materials":[
		{
			"alphaCutoff":0.20000000298023224,
			"alphaMode":"MASK",
			"doubleSided":true,
			"name":"Leaves.009",
			"pbrMetallicRoughness":{
				"baseColorTexture":{
					"index":0
				},
				"metallicFactor":0
			}
		}
	],
	"meshes":[
		{
			"name":"Plane.012",
			"primitives":[
				{
					"attributes":{
						"POSITION":0,
						"NORMAL":1,
						"TEXCOORD_0":2,
						"COLOR_0":3
					},
					"indices":4,
					"material":0
				}
			]
		}
	],
	"textures":[
		{
			"sampler":0,
			"source":0
		}
	],
	"images":[
		{
			"mimeType":"image/png",
			"name":"Leaves",
			"uri":"textures/Leaves.png"
		}
	],
	"accessors":[
		{
			"bufferView":0,
			"componentType":5126,
			"count":370,
			"max":[
				0.9352107644081116,
				2.312741994857788,
				0.917540431022644
			],
			"min":[
				-0.8713259696960449,
				-0.0350240021944046,
				-1.0364887714385986
			],
			"type":"VEC3"
		},
		{
			"bufferView":1,
			"componentType":5126,
			"count":370,
			"type":"VEC3"
		},
		{
			"bufferView":2,
			"componentType":5126,
			"count":370,
			"type":"VEC2"
		},
		{
			"bufferView":3,
			"componentType":5123,
			"count":370,
			"normalized":true,
			"type":"VEC4"
		},
		{
			"bufferView":4,
			"componentType":5123,
			"count":1080,
			"type":"SCALAR"
		}
	],
	"bufferViews":[
		{
			"buffer":0,
			"byteLength":4440,
			"byteOffset":0,
			"target":34962
		},
		{
			"buffer":0,
			"byteLength":4440,
			"byteOffset":4440,
			"target":34962
		},
		{
			"buffer":0,
			"byteLength":2960,
			"byteOffset":8880,
			"target":34962
		},
		{
			"buffer":0,
			"byteLength":2960,
			"byteOffset":11840,
			"target":34962
		},
		{
			"buffer":0,
			"byteLength":2160,
			"byteOffset":14800,
			"target":34963
		}
	],
	"samplers":[
		{
			"magFilter":9729,
			"minFilter":9987
		}
	],
	"buffers":[
		{
			"byteLength":16960,
			"uri":"plant_big.bin"
		}
	]
}
