{
	"asset":{
		"generator":"Khronos glTF Blender I/O v5.2.40",
		"version":"2.0"
	},
	"scene":0,
	"scenes":[
		{
			"name":"B_Build",
			"nodes":[
				0
			]
		}
	],
	"nodes":[
		{
			"mesh":0,
			"name":"vine_1"
		}
	],
	"materials":[
		{
			"alphaMode":"MASK",
			"doubleSided":true,
			"name":"MI_Vine.008",
			"pbrMetallicRoughness":{
				"baseColorFactor":[
					0.10236014425754547,
					0.3486083149909973,
					0,
					1
				],
				"baseColorTexture":{
					"index":0
				},
				"metallicFactor":0,
				"roughnessFactor":0.5
			}
		}
	],
	"meshes":[
		{
			"name":"Plane.021",
			"primitives":[
				{
					"attributes":{
						"POSITION":0,
						"NORMAL":1,
						"TEXCOORD_0":2
					},
					"indices":3,
					"material":0
				}
			]
		}
	],
	"textures":[
		{
			"sampler":0,
			"source":0
		}
	],
	"images":[
		{
			"mimeType":"image/png",
			"name":"T_VineLeaf_png",
			"uri":"textures/T_VineLeaf_png.png"
		}
	],
	"accessors":[
		{
			"bufferView":0,
			"componentType":5126,
			"count":161,
			"max":[
				0.7526196837425232,
				0.48202916979789734,
				0.17425554990768433
			],
			"min":[
				-0.7831392884254456,
				-2.1205222606658936,
				-0.04470796883106232
			],
			"type":"VEC3"
		},
		{
			"bufferView":1,
			"componentType":5126,
			"count":161,
			"type":"VEC3"
		},
		{
			"bufferView":2,
			"componentType":5126,
			"count":161,
			"type":"VEC2"
		},
		{
			"bufferView":3,
			"componentType":5123,
			"count":246,
			"type":"SCALAR"
		}
	],
	"bufferViews":[
		{
			"buffer":0,
			"byteLength":1932,
			"byteOffset":0,
			"target":34962
		},
		{
			"buffer":0,
			"byteLength":1932,
			"byteOffset":1932,
			"target":34962
		},
		{
			"buffer":0,
			"byteLength":1288,
			"byteOffset":3864,
			"target":34962
		},
		{
			"buffer":0,
			"byteLength":492,
			"byteOffset":5152,
			"target":34963
		}
	],
	"samplers":[
		{
			"magFilter":9729,
			"minFilter":9987
		}
	],
	"buffers":[
		{
			"byteLength":5644,
			"uri":"vine_1.bin"
		}
	]
}
