{
	"asset":{
		"generator":"Khronos glTF Blender I/O v5.2.40",
		"version":"2.0"
	},
	"scene":0,
	"scenes":[
		{
			"name":"B_Build",
			"nodes":[
				0
			]
		}
	],
	"nodes":[
		{
			"mesh":0,
			"name":"pebble_round_1"
		}
	],
	"materials":[
		{
			"doubleSided":true,
			"name":"PathRocks.004",
			"pbrMetallicRoughness":{
				"baseColorTexture":{
					"index":0
				},
				"metallicFactor":0
			}
		}
	],
	"meshes":[
		{
			"name":"Cube.017_Retopology.002",
			"primitives":[
				{
					"attributes":{
						"POSITION":0,
						"NORMAL":1,
						"TEXCOORD_0":2
					},
					"indices":3,
					"material":0
				}
			]
		}
	],
	"textures":[
		{
			"sampler":0,
			"source":0
		}
	],
	"images":[
		{
			"mimeType":"image/png",
			"name":"PathRocks_Diffuse",
			"uri":"textures/PathRocks_Diffuse.png"
		}
	],
	"accessors":[
		{
			"bufferView":0,
			"componentType":5126,
			"count":294,
			"max":[
				0.28022968769073486,
				0.08767858147621155,
				0.20741015672683716
			],
			"min":[
				-0.21980905532836914,
				-0.0077979713678359985,
				-0.15961268544197083
			],
			"type":"VEC3"
		},
		{
			"bufferView":1,
			"componentType":5126,
			"count":294,
			"type":"VEC3"
		},
		{
			"bufferView":2,
			"componentType":5126,
			"count":294,
			"type":"VEC2"
		},
		{
			"bufferView":3,
			"componentType":5123,
			"count":408,
			"type":"SCALAR"
		}
	],
	"bufferViews":[
		{
			"buffer":0,
			"byteLength":3528,
			"byteOffset":0,
			"target":34962
		},
		{
			"buffer":0,
			"byteLength":3528,
			"byteOffset":3528,
			"target":34962
		},
		{
			"buffer":0,
			"byteLength":2352,
			"byteOffset":7056,
			"target":34962
		},
		{
			"buffer":0,
			"byteLength":816,
			"byteOffset":9408,
			"target":34963
		}
	],
	"samplers":[
		{
			"magFilter":9729,
			"minFilter":9987
		}
	],
	"buffers":[
		{
			"byteLength":10224,
			"uri":"pebble_round_1.bin"
		}
	]
}
