{
	"asset":{
		"generator":"Khronos glTF Blender I/O v5.2.40",
		"version":"2.0"
	},
	"scene":0,
	"scenes":[
		{
			"name":"B_Build",
			"nodes":[
				0
			]
		}
	],
	"nodes":[
		{
			"mesh":0,
			"name":"plateau_desert"
		}
	],
	"materials":[
		{
			"doubleSided":true,
			"name":"Rocks_Desert.003",
			"pbrMetallicRoughness":{
				"baseColorTexture":{
					"index":0
				},
				"metallicFactor":0
			}
		},
		{
			"doubleSided":true,
			"name":"Rocks_Desert.004",
			"pbrMetallicRoughness":{
				"baseColorTexture":{
					"index":1
				},
				"metallicFactor":0
			}
		},
		{
			"doubleSided":true,
			"name":"Rocks_Desert.005",
			"pbrMetallicRoughness":{
				"baseColorTexture":{
					"index":2
				},
				"metallicFactor":0
			}
		}
	],
	"meshes":[
		{
			"name":"Cube.005_Retopology.007",
			"primitives":[
				{
					"attributes":{
						"POSITION":0,
						"NORMAL":1,
						"TEXCOORD_0":2
					},
					"indices":3,
					"material":0
				},
				{
					"attributes":{
						"POSITION":4,
						"NORMAL":5,
						"TEXCOORD_0":6
					},
					"indices":7,
					"material":1
				},
				{
					"attributes":{
						"POSITION":8,
						"NORMAL":9,
						"TEXCOORD_0":10
					},
					"indices":11,
					"material":2
				}
			]
		}
	],
	"textures":[
		{
			"sampler":0,
			"source":0
		},
		{
			"sampler":0,
			"source":0
		},
		{
			"sampler":0,
			"source":0
		}
	],
	"images":[
		{
			"mimeType":"image/png",
			"name":"Rocks_Desert_Diffuse",
			"uri":"textures/Rocks_Desert_Diffuse.png"
		}
	],
	"accessors":[
		{
			"bufferView":0,
			"componentType":5126,
			"count":351,
			"max":[
				3.8944387435913086,
				5.687582492828369,
				4.782058238983154
			],
			"min":[
				-4.4909467697143555,
				-0.7754355669021606,
				-2.989696502685547
			],
			"type":"VEC3"
		},
		{
			"bufferView":1,
			"componentType":5126,
			"count":351,
			"type":"VEC3"
		},
		{
			"bufferView":2,
			"componentType":5126,
			"count":351,
			"type":"VEC2"
		},
		{
			"bufferView":3,
			"componentType":5123,
			"count":1026,
			"type":"SCALAR"
		},
		{
			"bufferView":4,
			"componentType":5126,
			"count":249,
			"max":[
				6.137260913848877,
				4.072482585906982,
				1.9038821458816528
			],
			"min":[
				-0.5700123906135559,
				-0.5230365991592407,
				-3.5500760078430176
			],
			"type":"VEC3"
		},
		{
			"bufferView":5,
			"componentType":5126,
			"count":249,
			"type":"VEC3"
		},
		{
			"bufferView":6,
			"componentType":5126,
			"count":249,
			"type":"VEC2"
		},
		{
			"bufferView":7,
			"componentType":5123,
			"count":732,
			"type":"SCALAR"
		},
		{
			"bufferView":8,
			"componentType":5126,
			"count":531,
			"max":[
				0.5916111469268799,
				3.801403760910034,
				3.771296501159668
			],
			"min":[
				-6.24855899810791,
				-1.2944177389144897,
				-3.1809241771698
			],
			"type":"VEC3"
		},
		{
			"bufferView":9,
			"componentType":5126,
			"count":531,
			"type":"VEC3"
		},
		{
			"bufferView":10,
			"componentType":5126,
			"count":531,
			"type":"VEC2"
		},
		{
			"bufferView":11,
			"componentType":5123,
			"count":1566,
			"type":"SCALAR"
		}
	],
	"bufferViews":[
		{
			"buffer":0,
			"byteLength":4212,
			"byteOffset":0,
			"target":34962
		},
		{
			"buffer":0,
			"byteLength":4212,
			"byteOffset":4212,
			"target":34962
		},
		{
			"buffer":0,
			"byteLength":2808,
			"byteOffset":8424,
			"target":34962
		},
		{
			"buffer":0,
			"byteLength":2052,
			"byteOffset":11232,
			"target":34963
		},
		{
			"buffer":0,
			"byteLength":2988,
			"byteOffset":13284,
			"target":34962
		},
		{
			"buffer":0,
			"byteLength":2988,
			"byteOffset":16272,
			"target":34962
		},
		{
			"buffer":0,
			"byteLength":1992,
			"byteOffset":19260,
			"target":34962
		},
		{
			"buffer":0,
			"byteLength":1464,
			"byteOffset":21252,
			"target":34963
		},
		{
			"buffer":0,
			"byteLength":6372,
			"byteOffset":22716,
			"target":34962
		},
		{
			"buffer":0,
			"byteLength":6372,
			"byteOffset":29088,
			"target":34962
		},
		{
			"buffer":0,
			"byteLength":4248,
			"byteOffset":35460,
			"target":34962
		},
		{
			"buffer":0,
			"byteLength":3132,
			"byteOffset":39708,
			"target":34963
		}
	],
	"samplers":[
		{
			"magFilter":9729,
			"minFilter":9987
		}
	],
	"buffers":[
		{
			"byteLength":42840,
			"uri":"plateau_desert.bin"
		}
	]
}
