{
	"asset":{
		"generator":"Khronos glTF Blender I/O v5.2.40",
		"version":"2.0"
	},
	"extensionsUsed":[
		"KHR_materials_emissive_strength"
	],
	"scene":0,
	"scenes":[
		{
			"name":"B_Build",
			"nodes":[
				0
			]
		}
	],
	"nodes":[
		{
			"mesh":0,
			"name":"arch"
		}
	],
	"materials":[
		{
			"doubleSided":true,
			"name":"M_SandstoneBlocks",
			"normalTexture":{
				"index":0
			},
			"pbrMetallicRoughness":{
				"baseColorTexture":{
					"index":1
				},
				"metallicFactor":0,
				"metallicRoughnessTexture":{
					"index":2
				}
			}
		},
		{
			"doubleSided":true,
			"emissiveFactor":[
				0.1292123802881007,
				1,
				0.8913078386539368
			],
			"extensions":{
				"KHR_materials_emissive_strength":{
					"emissiveStrength":3.5515260696411133
				}
			},
			"name":"M_Magitech",
			"pbrMetallicRoughness":{
				"baseColorFactor":[
					0.11472528427839279,
					0.8878815174102783,
					0.7913757562637329,
					1
				],
				"metallicFactor":0,
				"roughnessFactor":0.30000001192092896
			}
		}
	],
	"meshes":[
		{
			"name":"arch",
			"primitives":[
				{
					"attributes":{
						"POSITION":0,
						"NORMAL":1,
						"TEXCOORD_0":2
					},
					"indices":3,
					"material":0
				},
				{
					"attributes":{
						"POSITION":4,
						"NORMAL":5,
						"TEXCOORD_0":6
					},
					"indices":7,
					"material":0
				},
				{
					"attributes":{
						"POSITION":8,
						"NORMAL":9,
						"TEXCOORD_0":10
					},
					"indices":7,
					"material":1
				}
			]
		}
	],
	"textures":[
		{
			"sampler":0,
			"source":0
		},
		{
			"sampler":0,
			"source":1
		},
		{
			"sampler":0,
			"source":2
		}
	],
	"images":[
		{
			"mimeType":"image/png",
			"name":"T_SandstoneBlocks_Normal",
			"uri":"textures/T_SandstoneBlocks_Normal.png"
		},
		{
			"mimeType":"image/png",
			"name":"T_SandstoneBlocks_BaseColor",
			"uri":"textures/T_SandstoneBlocks_BaseColor.png"
		},
		{
			"mimeType":"image/png",
			"name":"T_SandstoneBlocks_Roughness",
			"uri":"textures/T_SandstoneBlocks_Roughness.png"
		}
	],
	"accessors":[
		{
			"bufferView":0,
			"componentType":5126,
			"count":218,
			"max":[
				2,
				5,
				0.5
			],
			"min":[
				-2,
				0,
				-0.5
			],
			"type":"VEC3"
		},
		{
			"bufferView":1,
			"componentType":5126,
			"count":218,
			"type":"VEC3"
		},
		{
			"bufferView":2,
			"componentType":5126,
			"count":218,
			"type":"VEC2"
		},
		{
			"bufferView":3,
			"componentType":5123,
			"count":438,
			"type":"SCALAR"
		},
		{
			"bufferView":4,
			"componentType":5126,
			"count":24,
			"max":[
				2.1500000953674316,
				5.300000190734863,
				0.6000000238418579
			],
			"min":[
				-2.1500000953674316,
				5,
				-0.6000000238418579
			],
			"type":"VEC3"
		},
		{
			"bufferView":5,
			"componentType":5126,
			"count":24,
			"type":"VEC3"
		},
		{
			"bufferView":6,
			"componentType":5126,
			"count":24,
			"type":"VEC2"
		},
		{
			"bufferView":7,
			"componentType":5123,
			"count":36,
			"type":"SCALAR"
		},
		{
			"bufferView":8,
			"componentType":5126,
			"count":24,
			"max":[
				0.11999999731779099,
				4.449999809265137,
				0.5199999809265137
			],
			"min":[
				-0.11999999731779099,
				3.950000047683716,
				0.49000000953674316
			],
			"type":"VEC3"
		},
		{
			"bufferView":9,
			"componentType":5126,
			"count":24,
			"type":"VEC3"
		},
		{
			"bufferView":10,
			"componentType":5126,
			"count":24,
			"type":"VEC2"
		}
	],
	"bufferViews":[
		{
			"buffer":0,
			"byteLength":2616,
			"byteOffset":0,
			"target":34962
		},
		{
			"buffer":0,
			"byteLength":2616,
			"byteOffset":2616,
			"target":34962
		},
		{
			"buffer":0,
			"byteLength":1744,
			"byteOffset":5232,
			"target":34962
		},
		{
			"buffer":0,
			"byteLength":876,
			"byteOffset":6976,
			"target":34963
		},
		{
			"buffer":0,
			"byteLength":288,
			"byteOffset":7852,
			"target":34962
		},
		{
			"buffer":0,
			"byteLength":288,
			"byteOffset":8140,
			"target":34962
		},
		{
			"buffer":0,
			"byteLength":192,
			"byteOffset":8428,
			"target":34962
		},
		{
			"buffer":0,
			"byteLength":72,
			"byteOffset":8620,
			"target":34963
		},
		{
			"buffer":0,
			"byteLength":288,
			"byteOffset":8692,
			"target":34962
		},
		{
			"buffer":0,
			"byteLength":288,
			"byteOffset":8980,
			"target":34962
		},
		{
			"buffer":0,
			"byteLength":192,
			"byteOffset":9268,
			"target":34962
		}
	],
	"samplers":[
		{
			"magFilter":9729,
			"minFilter":9987
		}
	],
	"buffers":[
		{
			"byteLength":9460,
			"uri":"arch.bin"
		}
	]
}
