{
	"asset":{
		"generator":"Khronos glTF Blender I/O v5.2.40",
		"version":"2.0"
	},
	"extensionsUsed":[
		"KHR_materials_emissive_strength"
	],
	"scene":0,
	"scenes":[
		{
			"name":"B_Build",
			"nodes":[
				0
			]
		}
	],
	"nodes":[
		{
			"mesh":0,
			"name":"magitech_panel"
		}
	],
	"materials":[
		{
			"doubleSided":true,
			"name":"M_SandstoneBlocks",
			"normalTexture":{
				"index":0
			},
			"pbrMetallicRoughness":{
				"baseColorTexture":{
					"index":1
				},
				"metallicFactor":0,
				"metallicRoughnessTexture":{
					"index":2
				}
			}
		},
		{
			"doubleSided":true,
			"emissiveFactor":[
				0.1292123802881007,
				1,
				0.8913078386539368
			],
			"extensions":{
				"KHR_materials_emissive_strength":{
					"emissiveStrength":3.5515260696411133
				}
			},
			"name":"M_Magitech",
			"pbrMetallicRoughness":{
				"baseColorFactor":[
					0.11472528427839279,
					0.8878815174102783,
					0.7913757562637329,
					1
				],
				"metallicFactor":0,
				"roughnessFactor":0.30000001192092896
			}
		}
	],
	"meshes":[
		{
			"name":"magitech_panel",
			"primitives":[
				{
					"attributes":{
						"POSITION":0,
						"NORMAL":1,
						"TEXCOORD_0":2
					},
					"indices":3,
					"material":0
				},
				{
					"attributes":{
						"POSITION":4,
						"NORMAL":5,
						"TEXCOORD_0":6
					},
					"indices":7,
					"material":1
				}
			]
		}
	],
	"textures":[
		{
			"sampler":0,
			"source":0
		},
		{
			"sampler":0,
			"source":1
		},
		{
			"sampler":0,
			"source":2
		}
	],
	"images":[
		{
			"mimeType":"image/png",
			"name":"T_SandstoneBlocks_Normal",
			"uri":"textures/T_SandstoneBlocks_Normal.png"
		},
		{
			"mimeType":"image/png",
			"name":"T_SandstoneBlocks_BaseColor",
			"uri":"textures/T_SandstoneBlocks_BaseColor.png"
		},
		{
			"mimeType":"image/png",
			"name":"T_SandstoneBlocks_Roughness",
			"uri":"textures/T_SandstoneBlocks_Roughness.png"
		}
	],
	"accessors":[
		{
			"bufferView":0,
			"componentType":5126,
			"count":24,
			"max":[
				0.5,
				0.5,
				0.10000000149011612
			],
			"min":[
				-0.5,
				-0.5,
				0
			],
			"type":"VEC3"
		},
		{
			"bufferView":1,
			"componentType":5126,
			"count":24,
			"type":"VEC3"
		},
		{
			"bufferView":2,
			"componentType":5126,
			"count":24,
			"type":"VEC2"
		},
		{
			"bufferView":3,
			"componentType":5123,
			"count":36,
			"type":"SCALAR"
		},
		{
			"bufferView":4,
			"componentType":5126,
			"count":56,
			"max":[
				0.3199999928474426,
				0.3199999928474426,
				0.10499999672174454
			],
			"min":[
				-0.3199999928474426,
				-0.3199999928474426,
				0.10499999672174454
			],
			"type":"VEC3"
		},
		{
			"bufferView":5,
			"componentType":5126,
			"count":56,
			"type":"VEC3"
		},
		{
			"bufferView":6,
			"componentType":5126,
			"count":56,
			"type":"VEC2"
		},
		{
			"bufferView":7,
			"componentType":5123,
			"count":156,
			"type":"SCALAR"
		}
	],
	"bufferViews":[
		{
			"buffer":0,
			"byteLength":288,
			"byteOffset":0,
			"target":34962
		},
		{
			"buffer":0,
			"byteLength":288,
			"byteOffset":288,
			"target":34962
		},
		{
			"buffer":0,
			"byteLength":192,
			"byteOffset":576,
			"target":34962
		},
		{
			"buffer":0,
			"byteLength":72,
			"byteOffset":768,
			"target":34963
		},
		{
			"buffer":0,
			"byteLength":672,
			"byteOffset":840,
			"target":34962
		},
		{
			"buffer":0,
			"byteLength":672,
			"byteOffset":1512,
			"target":34962
		},
		{
			"buffer":0,
			"byteLength":448,
			"byteOffset":2184,
			"target":34962
		},
		{
			"buffer":0,
			"byteLength":312,
			"byteOffset":2632,
			"target":34963
		}
	],
	"samplers":[
		{
			"magFilter":9729,
			"minFilter":9987
		}
	],
	"buffers":[
		{
			"byteLength":2944,
			"uri":"magitech_panel.bin"
		}
	]
}
