{
	"asset":{
		"generator":"Khronos glTF Blender I/O v5.2.40",
		"version":"2.0"
	},
	"scene":0,
	"scenes":[
		{
			"name":"B_Build",
			"nodes":[
				0
			]
		}
	],
	"nodes":[
		{
			"mesh":0,
			"name":"wall_stepped"
		}
	],
	"materials":[
		{
			"doubleSided":true,
			"name":"M_SandstoneRubble",
			"normalTexture":{
				"index":0
			},
			"pbrMetallicRoughness":{
				"baseColorTexture":{
					"index":1
				},
				"metallicFactor":0,
				"metallicRoughnessTexture":{
					"index":2
				}
			}
		},
		{
			"doubleSided":true,
			"name":"M_SandstoneBlocks",
			"normalTexture":{
				"index":3
			},
			"pbrMetallicRoughness":{
				"baseColorTexture":{
					"index":4
				},
				"metallicFactor":0,
				"metallicRoughnessTexture":{
					"index":5
				}
			}
		}
	],
	"meshes":[
		{
			"name":"wall_stepped",
			"primitives":[
				{
					"attributes":{
						"POSITION":0,
						"NORMAL":1,
						"TEXCOORD_0":2
					},
					"indices":3,
					"material":0
				},
				{
					"attributes":{
						"POSITION":4,
						"NORMAL":5,
						"TEXCOORD_0":6
					},
					"indices":7,
					"material":1
				}
			]
		}
	],
	"textures":[
		{
			"sampler":0,
			"source":0
		},
		{
			"sampler":0,
			"source":1
		},
		{
			"sampler":0,
			"source":2
		},
		{
			"sampler":0,
			"source":3
		},
		{
			"sampler":0,
			"source":4
		},
		{
			"sampler":0,
			"source":5
		}
	],
	"images":[
		{
			"mimeType":"image/png",
			"name":"T_SandstoneRubble_Normal",
			"uri":"textures/T_SandstoneRubble_Normal.png"
		},
		{
			"mimeType":"image/png",
			"name":"T_SandstoneRubble_BaseColor",
			"uri":"textures/T_SandstoneRubble_BaseColor.png"
		},
		{
			"mimeType":"image/png",
			"name":"T_SandstoneRubble_Roughness",
			"uri":"textures/T_SandstoneRubble_Roughness.png"
		},
		{
			"mimeType":"image/png",
			"name":"T_SandstoneBlocks_Normal",
			"uri":"textures/T_SandstoneBlocks_Normal.png"
		},
		{
			"mimeType":"image/png",
			"name":"T_SandstoneBlocks_BaseColor",
			"uri":"textures/T_SandstoneBlocks_BaseColor.png"
		},
		{
			"mimeType":"image/png",
			"name":"T_SandstoneBlocks_Roughness",
			"uri":"textures/T_SandstoneBlocks_Roughness.png"
		}
	],
	"accessors":[
		{
			"bufferView":0,
			"componentType":5126,
			"count":486,
			"max":[
				2.049999952316284,
				3.1500000953674316,
				1.5499999523162842
			],
			"min":[
				-2.049999952316284,
				-0.019999999552965164,
				-1.5
			],
			"type":"VEC3"
		},
		{
			"bufferView":1,
			"componentType":5126,
			"count":486,
			"type":"VEC3"
		},
		{
			"bufferView":2,
			"componentType":5126,
			"count":486,
			"type":"VEC2"
		},
		{
			"bufferView":3,
			"componentType":5123,
			"count":684,
			"type":"SCALAR"
		},
		{
			"bufferView":4,
			"componentType":5126,
			"count":72,
			"max":[
				2.049999952316284,
				3.1500000953674316,
				1.5499999523162842
			],
			"min":[
				-2.049999952316284,
				1,
				-1.5
			],
			"type":"VEC3"
		},
		{
			"bufferView":5,
			"componentType":5126,
			"count":72,
			"type":"VEC3"
		},
		{
			"bufferView":6,
			"componentType":5126,
			"count":72,
			"type":"VEC2"
		},
		{
			"bufferView":7,
			"componentType":5123,
			"count":108,
			"type":"SCALAR"
		}
	],
	"bufferViews":[
		{
			"buffer":0,
			"byteLength":5832,
			"byteOffset":0,
			"target":34962
		},
		{
			"buffer":0,
			"byteLength":5832,
			"byteOffset":5832,
			"target":34962
		},
		{
			"buffer":0,
			"byteLength":3888,
			"byteOffset":11664,
			"target":34962
		},
		{
			"buffer":0,
			"byteLength":1368,
			"byteOffset":15552,
			"target":34963
		},
		{
			"buffer":0,
			"byteLength":864,
			"byteOffset":16920,
			"target":34962
		},
		{
			"buffer":0,
			"byteLength":864,
			"byteOffset":17784,
			"target":34962
		},
		{
			"buffer":0,
			"byteLength":576,
			"byteOffset":18648,
			"target":34962
		},
		{
			"buffer":0,
			"byteLength":216,
			"byteOffset":19224,
			"target":34963
		}
	],
	"samplers":[
		{
			"magFilter":9729,
			"minFilter":9987
		}
	],
	"buffers":[
		{
			"byteLength":19440,
			"uri":"wall_stepped.bin"
		}
	]
}
