{
	"asset":{
		"generator":"Khronos glTF Blender I/O v5.2.40",
		"version":"2.0"
	},
	"scene":0,
	"scenes":[
		{
			"name":"B_Build",
			"nodes":[
				0
			]
		}
	],
	"nodes":[
		{
			"mesh":0,
			"name":"wall"
		}
	],
	"materials":[
		{
			"doubleSided":true,
			"name":"M_SandstoneRubble",
			"normalTexture":{
				"index":0
			},
			"pbrMetallicRoughness":{
				"baseColorTexture":{
					"index":1
				},
				"metallicFactor":0,
				"metallicRoughnessTexture":{
					"index":2
				}
			}
		},
		{
			"doubleSided":true,
			"name":"M_SandstoneBlocks",
			"normalTexture":{
				"index":3
			},
			"pbrMetallicRoughness":{
				"baseColorTexture":{
					"index":4
				},
				"metallicFactor":0,
				"metallicRoughnessTexture":{
					"index":5
				}
			}
		}
	],
	"meshes":[
		{
			"name":"wall",
			"primitives":[
				{
					"attributes":{
						"POSITION":0,
						"NORMAL":1,
						"TEXCOORD_0":2
					},
					"indices":3,
					"material":0
				},
				{
					"attributes":{
						"POSITION":4,
						"NORMAL":5,
						"TEXCOORD_0":6
					},
					"indices":7,
					"material":1
				}
			]
		}
	],
	"textures":[
		{
			"sampler":0,
			"source":0
		},
		{
			"sampler":0,
			"source":1
		},
		{
			"sampler":0,
			"source":2
		},
		{
			"sampler":0,
			"source":3
		},
		{
			"sampler":0,
			"source":4
		},
		{
			"sampler":0,
			"source":5
		}
	],
	"images":[
		{
			"mimeType":"image/png",
			"name":"T_SandstoneRubble_Normal",
			"uri":"textures/T_SandstoneRubble_Normal.png"
		},
		{
			"mimeType":"image/png",
			"name":"T_SandstoneRubble_BaseColor",
			"uri":"textures/T_SandstoneRubble_BaseColor.png"
		},
		{
			"mimeType":"image/png",
			"name":"T_SandstoneRubble_Roughness",
			"uri":"textures/T_SandstoneRubble_Roughness.png"
		},
		{
			"mimeType":"image/png",
			"name":"T_SandstoneBlocks_Normal",
			"uri":"textures/T_SandstoneBlocks_Normal.png"
		},
		{
			"mimeType":"image/png",
			"name":"T_SandstoneBlocks_BaseColor",
			"uri":"textures/T_SandstoneBlocks_BaseColor.png"
		},
		{
			"mimeType":"image/png",
			"name":"T_SandstoneBlocks_Roughness",
			"uri":"textures/T_SandstoneBlocks_Roughness.png"
		}
	],
	"accessors":[
		{
			"bufferView":0,
			"componentType":5126,
			"count":168,
			"max":[
				2.0999999046325684,
				3.200000047683716,
				0.5
			],
			"min":[
				-2.0999999046325684,
				0,
				-0.5
			],
			"type":"VEC3"
		},
		{
			"bufferView":1,
			"componentType":5126,
			"count":168,
			"type":"VEC3"
		},
		{
			"bufferView":2,
			"componentType":5126,
			"count":168,
			"type":"VEC2"
		},
		{
			"bufferView":3,
			"componentType":5123,
			"count":228,
			"type":"SCALAR"
		},
		{
			"bufferView":4,
			"componentType":5126,
			"count":24,
			"max":[
				2.0999999046325684,
				3.200000047683716,
				0.5
			],
			"min":[
				-2.0999999046325684,
				3,
				-0.5
			],
			"type":"VEC3"
		},
		{
			"bufferView":5,
			"componentType":5126,
			"count":24,
			"type":"VEC3"
		},
		{
			"bufferView":6,
			"componentType":5126,
			"count":24,
			"type":"VEC2"
		},
		{
			"bufferView":7,
			"componentType":5123,
			"count":36,
			"type":"SCALAR"
		}
	],
	"bufferViews":[
		{
			"buffer":0,
			"byteLength":2016,
			"byteOffset":0,
			"target":34962
		},
		{
			"buffer":0,
			"byteLength":2016,
			"byteOffset":2016,
			"target":34962
		},
		{
			"buffer":0,
			"byteLength":1344,
			"byteOffset":4032,
			"target":34962
		},
		{
			"buffer":0,
			"byteLength":456,
			"byteOffset":5376,
			"target":34963
		},
		{
			"buffer":0,
			"byteLength":288,
			"byteOffset":5832,
			"target":34962
		},
		{
			"buffer":0,
			"byteLength":288,
			"byteOffset":6120,
			"target":34962
		},
		{
			"buffer":0,
			"byteLength":192,
			"byteOffset":6408,
			"target":34962
		},
		{
			"buffer":0,
			"byteLength":72,
			"byteOffset":6600,
			"target":34963
		}
	],
	"samplers":[
		{
			"magFilter":9729,
			"minFilter":9987
		}
	],
	"buffers":[
		{
			"byteLength":6672,
			"uri":"wall.bin"
		}
	]
}
